<svg width="22" height="22" viewBox="0 0 22 22" fill="none" xmlns="http://www.w3.org/2000/svg">
<g clip-path="url(#clip0_1_427)">
<path d="M18.9731 5.71874C18.1981 3.21418 16.1606 1.17612 13.6561 0.40101C11.0052 -0.420123 8.18482 0.0362492 6.03204 1.62248C3.89512 3.19776 2.61951 5.72123 2.61951 8.37258C2.61951 10.2016 3.19812 11.9393 4.29241 13.3975L11.0009 22.0001L17.7094 13.3969C19.3471 11.2134 19.808 8.41477 18.9731 5.71874ZM11.0009 12.8856C8.51267 12.8856 6.48786 10.8608 6.48786 8.37253C6.48786 5.8843 8.51267 3.85948 11.0009 3.85948C13.4892 3.85948 15.514 5.8843 15.514 8.37253C15.514 10.8608 13.4892 12.8856 11.0009 12.8856Z" fill="#323232"/>
<path d="M11.0008 5.15747C9.22342 5.15747 7.77722 6.59508 7.77722 8.37248C7.77722 10.1499 9.22342 11.5961 11.0008 11.5961C12.7782 11.5961 14.2244 10.1499 14.2244 8.37248C14.2245 6.59508 12.7782 5.15747 11.0008 5.15747Z" fill="#323232"/>
</g>
<defs>
<clipPath id="clip0_1_427">
<rect width="22" height="22" fill="white"/>
</clipPath>
</defs>
</svg>
